<svg version="1.0" xmlns="http://www.w3.org/2000/svg"
 width="192.000000pt" height="192.000000pt" viewBox="0 0 192.000000 192.000000"
 preserveAspectRatio="xMidYMid meet">

<g transform="translate(0.000000,192.000000) scale(0.100000,-0.100000)"
fill="#000000" stroke="none">
<path d="M1181 1120 l-44 -17 33 -11 c44 -16 50 -15 20 4 -21 12 -21 14 -4 9
13 -3 26 1 34 10 19 23 10 25 -39 5z"/>
<path d="M1083 1037 c-30 -51 -31 -53 -19 -117 l12 -65 33 57 c31 55 32 59 22
114 -6 32 -12 59 -14 60 -1 2 -17 -20 -34 -49z"/>
<path d="M1090 841 c0 -6 76 -71 83 -71 2 0 1 17 -2 38 -6 35 -9 37 -44 38
-20 1 -37 -2 -37 -5z"/>
</g>
</svg>
